# xmcd
#
# Track frame offsets: 
#        150
#        22760
#        41267
#
# Disc length: 850 seconds
#
# Revision: 4
# Processed by: cddbd v1.5.1PL0 Copyright (c) Steve Scherf et al.
# Submitted via: ExactAudioCopy v0.95a5
#
DISCID=12035003
DTITLE=Riho Makise - Namida No Parachute
DYEAR=1994
DGENRE=JPop
TTITLE0=Namida No Parachute
TTITLE1=Guuzen No Opera
TTITLE2=Namida No Parachute (Karaoke)
EXTD=YEAR: 1994
EXTT0=
EXTT1=
EXTT2=
PLAYORDER=
